<svg width="2160" height="533" viewBox="0 0 2160 533" fill="none" xmlns="http://www.w3.org/2000/svg">
<path fill-rule="evenodd" clip-rule="evenodd" d="M0 15L60 25C120 36 254.5 36 374.5 25C494.5 14 600 -7.00004 720 3.99996C840 15 994.5 -19 1114.5 25C1234.5 68 1320 -7.00004 1440 3.99996C1560 15 1701 47 1821 15C1941 -18 2040 79 2100 47L2160 15V533H2100C2040 533 1920 533 1800 533C1680 533 1560 533 1440 533C1320 533 1200 533 1080 533C960 533 840 533 720 533C600 533 480 533 360 533C240 533 120 533 60 533H0V15Z" fill="#2E349E"/>
</svg>
